Coordinates
version=1
nRows=22
nColumns=33
inDegrees=yes

Units are S.I. units (second, meters, Newtons, ...)
Angles are in degrees.

endheader
time	ground_thorax_rot_x	ground_thorax_rot_y	ground_thorax_rot_z	ground_thorax_tx	ground_thorax_ty	ground_thorax_tz	clav_prot_r	clav_elev_r	scapula_abduction_r	scapula_elevation_r	scapula_upward_rot_r	scapula_winging_r	shoulder_elv_r	plane_of_elev_r	axial_rot_r	elbow_flexion_r	pro_sup_r	wrist_flex_r	wrist_dev_r	clav_prot_l	clav_elev_l	scapula_abduction_l	scapula_elevation_l	scapula_upward_rot_l	scapula_winging_l	shoulder_elv_l	plane_of_elev_l	axial_rot_l	elbow_flexion_l	pro_sup_l	wrist_flex_l	wrist_dev_l	
6.8600	-32.983754	-22.913788	28.720245	-107.460093	842.790417	-47.629031	26.292050	-45.000000	37.976789	-45.000000	-45.000000	1691.374737	4755.733707	20.197763	-143.929153	2518.124919	155.444517	14.763689	14.547624	-1.609452	32.245799	-29.590557	-45.000000	-45.000000	3326.520026	-3883.544431	27.570412	51.711086	1069.844583	41.497562	11.906583	-22.555289	
6.8700	-32.958101	-22.999596	28.812771	-107.191386	842.482484	-47.604502	26.308942	-45.000000	37.995973	-45.000000	-45.000000	1691.375308	4755.737864	20.178641	-143.883530	2518.108581	155.206093	14.829102	14.493761	-1.643059	32.254930	-29.562302	-45.000000	-45.000000	3326.481775	-3883.538362	27.531591	51.578681	1069.860284	41.744954	11.762013	-22.713802	
6.8800	-32.935661	-23.082929	28.896599	-106.913773	842.182735	-47.590661	26.320024	-45.000000	38.025125	-45.000000	-45.000000	1691.376595	4755.737790	20.154791	-143.844151	2518.094097	154.983568	14.914202	14.453284	-1.685636	32.276330	-29.531765	-45.000000	-45.000000	3326.433245	-3883.523306	27.486042	51.448383	1069.866759	41.989169	11.612734	-22.913344	
6.8900	-32.916785	-23.155543	28.965392	-106.616591	841.896646	-47.598504	26.333619	-45.000000	38.044419	-45.000000	-45.000000	1691.389689	4755.742867	20.146374	-143.836509	2518.083266	154.813346	14.974247	14.414896	-1.703577	32.287190	-29.519881	-45.000000	-45.000000	3326.410497	-3883.524718	27.458093	51.334648	1069.899866	42.249413	11.488014	-23.066964	
6.9000	-32.901882	-23.223335	29.023543	-106.299296	841.629649	-47.629218	26.347395	-45.000000	38.062157	-45.000000	-45.000000	1691.408741	4755.749131	20.146214	-143.856352	2518.073291	154.690880	15.014900	14.376289	-1.703311	32.285368	-29.520433	-45.000000	-45.000000	3326.404649	-3883.533006	27.441540	51.234559	1069.948587	42.521120	11.381195	-23.179898	
6.9100	-32.892404	-23.284923	29.066304	-105.960203	841.387724	-47.684197	26.360064	-45.000000	38.075183	-45.000000	-45.000000	1691.437163	4755.757556	20.155887	-143.904169	2518.069258	154.614372	15.054905	14.347890	-1.693203	32.285542	-29.532443	-45.000000	-45.000000	3326.413128	-3883.541175	27.433729	51.150717	1070.003453	42.798405	11.292022	-23.289759	
6.9200	-32.886619	-23.342734	29.097270	-105.600518	841.176282	-47.760808	26.372725	-45.000000	38.089646	-45.000000	-45.000000	1691.469797	4755.764813	20.171422	-143.978019	2518.065781	154.577328	15.088692	14.319549	-1.674319	32.281727	-29.554279	-45.000000	-45.000000	3326.428633	-3883.547389	27.429861	51.081758	1070.066584	43.078026	11.219342	-23.370378	
6.9300	-32.882823	-23.400897	29.116955	-105.222567	840.999732	-47.853964	26.384488	-45.000000	38.103121	-45.000000	-45.000000	1691.510061	4755.773922	20.193330	-144.071162	2518.072298	154.566357	15.139900	14.306758	-1.658822	32.290433	-29.581256	-45.000000	-45.000000	3326.452188	-3883.545495	27.426613	51.032722	1070.123545	43.345111	11.161564	-23.481143	
6.9400	-32.878262	-23.456328	29.126942	-104.827954	840.861162	-47.957841	26.395954	-45.000000	38.119819	-45.000000	-45.000000	1691.553092	4755.780137	20.220762	-144.185112	2518.077605	154.576034	15.187356	14.289121	-1.640890	32.298348	-29.613239	-45.000000	-45.000000	3326.473129	-3883.540792	27.420972	51.001744	1070.189070	43.597160	11.117103	-23.560008	
6.9500	-32.873086	-23.509982	29.127415	-104.417359	840.762419	-48.066904	26.405497	-45.000000	38.135841	-45.000000	-45.000000	1691.602501	4755.786594	20.254796	-144.314719	2518.089127	154.598244	15.245826	14.288308	-1.625814	32.315502	-29.647879	-45.000000	-45.000000	3326.501454	-3883.530159	27.421757	50.997162	1070.244268	43.822949	11.091116	-23.662773	
6.9600	-32.865971	-23.556543	29.121119	-103.989959	840.704114	-48.176790	26.413163	-45.000000	38.158494	-45.000000	-45.000000	1691.651853	4755.787504	20.289345	-144.463721	2518.095895	154.628397	15.299370	14.280869	-1.610758	32.332809	-29.686666	-45.000000	-45.000000	3326.517905	-3883.514533	27.419555	51.011629	1070.301411	44.020969	11.077838	-23.729809	
6.9700	-32.855889	-23.602462	29.116089	-103.543650	840.685616	-48.284773	26.419950	-45.000000	38.182674	-45.000000	-45.000000	1691.702536	4755.789197	20.324649	-144.625924	2518.107899	154.662031	15.353250	14.290442	-1.594531	32.349425	-29.729436	-45.000000	-45.000000	3326.547949	-3883.492742	27.431434	51.053676	1070.338858	44.184843	11.087290	-23.812720	
6.9800	-32.843664	-23.641619	29.109041	-103.074917	840.704942	-48.389824	26.424212	-45.000000	38.210392	-45.000000	-45.000000	1691.751227	4755.786446	20.360018	-144.806329	2518.112091	154.695837	15.395181	14.289479	-1.576433	32.360621	-29.774390	-45.000000	-45.000000	3326.565221	-3883.463970	27.443296	51.109896	1070.373331	44.318418	11.105777	-23.851493	
6.9900	-32.829058	-23.682189	29.106335	-102.579644	840.758837	-48.492198	26.428388	-45.000000	38.238617	-45.000000	-45.000000	1691.800449	4755.783557	20.396880	-144.998952	2518.117489	154.726855	15.434820	14.300022	-1.555887	32.369940	-29.821691	-45.000000	-45.000000	3326.592905	-3883.428668	27.467421	51.186019	1070.387557	44.422946	11.141030	-23.898594	
7.0000	-32.811446	-23.720635	29.105460	-102.053148	840.842883	-48.592942	26.432186	-45.000000	38.270666	-45.000000	-45.000000	1691.849191	4755.777578	20.433374	-145.207548	2518.116303	154.751489	15.471335	14.298048	-1.538465	32.380997	-29.871411	-45.000000	-45.000000	3326.603895	-3883.387975	27.481648	51.268195	1070.402638	44.504108	11.175581	-23.916186	
7.0100	-32.787902	-23.766139	29.116379	-101.490740	840.951833	-48.693351	26.438636	-45.000000	38.307069	-45.000000	-45.000000	1691.897513	4755.772402	20.469662	-145.424641	2518.116894	154.769577	15.507191	14.304256	-1.519711	32.391052	-29.923706	-45.000000	-45.000000	3326.625370	-3883.347478	27.501271	51.364232	1070.409151	44.566850	11.218518	-23.944079	
7.0200	-32.760048	-23.812818	29.132138	-100.887620	841.079942	-48.794648	26.445842	-45.000000	38.346050	-45.000000	-45.000000	1691.945970	4755.766616	20.507673	-145.652756	2518.109705	154.780278	15.538597	14.298824	-1.505712	32.400914	-29.973976	-45.000000	-45.000000	3326.630113	-3883.306274	27.512000	51.462144	1070.425727	44.619580	11.252357	-23.948830	
7.0300	-32.725668	-23.867815	29.161705	-100.239350	841.221483	-48.897812	26.456491	-45.000000	38.392737	-45.000000	-45.000000	1691.992766	4755.760769	20.544652	-145.886759	2518.101295	154.783994	15.571984	14.301004	-1.492556	32.412045	-30.022315	-45.000000	-45.000000	3326.638745	-3883.266175	27.527648	51.570461	1070.440748	44.669504	11.288948	-23.961051	
7.0400	-32.686367	-23.930561	29.198927	-99.541613	841.371110	-49.003651	26.471831	-45.000000	38.443349	-45.000000	-45.000000	1692.040385	4755.756222	20.585034	-146.125795	2518.088337	154.782048	15.595903	14.298362	-1.489130	32.417091	-30.056940	-45.000000	-45.000000	3326.633114	-3883.218872	27.543034	51.681832	1070.466802	44.721768	11.314966	-23.960934	
7.0500	-32.642186	-24.006175	29.247044	-98.790504	841.524199	-49.112845	26.494385	-45.000000	38.501036	-45.000000	-45.000000	1692.087321	4755.750878	20.630034	-146.364229	2518.078527	154.774504	15.619611	14.307063	-1.495080	32.422057	-30.079077	-45.000000	-45.000000	3326.629932	-3883.162086	27.568050	51.808703	1070.493228	44.781744	11.343390	-23.971897	
7.0600	-32.595042	-24.094894	29.302237	-97.982686	841.677035	-49.225928	26.522125	-45.000000	38.563421	-45.000000	-45.000000	1692.139033	4755.744579	20.680999	-146.604782	2518.068139	154.762145	15.633152	14.316155	-1.513880	32.419030	-30.086785	-45.000000	-45.000000	3326.617418	-3883.090585	27.594311	51.947263	1070.525695	44.852832	11.364481	-23.979748	
7.0700	-32.542154	-24.199240	29.371359	-97.115683	841.826900	-49.343174	26.553782	-45.000000	38.636638	-45.000000	-45.000000	1692.192402	4755.735120	20.732514	-146.851857	2518.059641	154.741888	15.651560	14.331983	-1.536180	32.419293	-30.091876	-45.000000	-45.000000	3326.608537	-3883.012103	27.622604	52.106585	1070.557580	44.937609	11.390060	-23.990761	
